<svg width="56" height="56" viewBox="0 0 56 56" fill="none" xmlns="http://www.w3.org/2000/svg">
<path fill-rule="evenodd" clip-rule="evenodd" d="M1.83358 1.83355C2.8343 0.832828 4.45679 0.832828 5.4575 1.83355L27.5622 23.9382L49.6669 1.83355C50.6676 0.832828 52.2901 0.832828 53.2908 1.83355C54.2915 2.83427 54.2915 4.45675 53.2908 5.45747L31.1861 27.5622L53.2908 49.6669C54.2915 50.6676 54.2915 52.2901 53.2908 53.2908C52.2901 54.2915 50.6676 54.2915 49.6669 53.2908L27.5622 31.1861L5.45747 53.2908C4.45675 54.2915 2.83427 54.2915 1.83355 53.2908C0.832828 52.2901 0.832828 50.6676 1.83355 49.6669L23.9383 27.5622L1.83358 5.45747C0.832862 4.45675 0.832863 2.83426 1.83358 1.83355Z" fill="#C4453C" stroke="#C4453C" stroke-width="2" stroke-linecap="round" stroke-linejoin="round"/>
</svg>
