<svg width="477" height="490" viewBox="0 0 477 490" fill="none" xmlns="http://www.w3.org/2000/svg">
<path fill-rule="evenodd" clip-rule="evenodd" d="M60.2127 412.712C30.8726 381.708 10.6419 343.916 0.651367 303.549C16.3419 
297.887 30.1924 286.862 39.1857 271.286C59.413 236.251 47.4092 191.452 12.3743 171.224C10.255 170.001 8.10008 168.895 5.91696 
167.905C11.0465 152.521 17.7939 137.421 26.2182 122.829C38.9796 100.726 54.6752 81.3724 72.5293 64.9766C72.8231 65.1519 73.1187 
65.3253 73.416 65.497C108.451 85.7244 153.25 73.7205 173.477 38.6856C179.284 28.6278 182.435 17.7651 183.147 6.9113C220.728 
-1.70829 260.4 -1.49271 298.801 8.45782C297.419 35.0795 310.67 61.5062 335.339 75.749C360.009 89.9919 389.52 88.2541 411.885 
73.7468C439.703 102.028 459.725 136.276 471.051 173.133C462.007 179.176 454.175 187.336 448.368 197.394C428.141 232.429 440.145 
277.228 475.18 297.455C475.477 297.627 475.775 297.796 476.074 297.963C470.801 321.623 461.889 344.893 449.127 366.996C440.703 
381.587 431 394.981 420.241 407.115C418.292 405.719 416.258 404.407 414.138 403.183C379.103 382.955 334.304 394.959 314.077 
429.994C305.083 445.571 302.461 463.078 305.402 479.497C265.449 491.029 222.605 492.404 181.084 482.497C187.676 452.196 174.403 
419.838 146.11 403.504C117.818 387.169 83.1581 391.853 60.2127 412.712ZM179.173 346.238C235.133 378.546 306.689 359.373 338.998 
303.413C371.307 247.452 352.133 175.896 296.173 143.588C240.213 111.279 168.657 130.452 136.348 186.413C104.039 242.373 123.213 
313.929 179.173 346.238ZM302.952 282.5C282.241 318.372 236.372 330.663 200.5 309.952C164.628 289.241 152.338 243.372 173.048 
207.5C193.759 171.628 239.628 159.338 275.5 180.048C311.372 200.759 323.663 246.628 302.952 282.5Z" fill="#F2F2F2"/>
</svg>
